<?xml version="1.0" encoding="UTF-8" standalone="no"?>
<!DOCTYPE svg PUBLIC "-//W3C//DTD SVG 1.1//EN" "http://www.w3.org/Graphics/SVG/1.1/DTD/svg11.dtd">
<svg width="100%" height="100%" viewBox="0 0 318 113" version="1.1" xmlns="http://www.w3.org/2000/svg" xmlns:xlink="http://www.w3.org/1999/xlink" xml:space="preserve" xmlns:serif="http://www.serif.com/" style="fill-rule:evenodd;clip-rule:evenodd;stroke-linejoin:round;stroke-miterlimit:2;">
    <g transform="matrix(1,0,0,1,-620.814,-268.413)">
        <g transform="matrix(1,0,0,1,528.801,0)">
            <g>
                <g transform="matrix(281.574,0,0,281.574,91.9955,409.219)">
                    <path d="M0.217,-0.1C0.224,-0.1 0.231,-0.103 0.237,-0.109C0.248,-0.12 0.039,-0.3 0.039,-0.3C0.039,-0.3 0.249,-0.479 0.237,-0.491C0.228,-0.503 0.21,-0.503 0.198,-0.492L0.008,-0.322C0.002,-0.316 0,-0.309 0,-0.3C0,-0.293 0.002,-0.285 0.008,-0.279L0.198,-0.107C0.203,-0.103 0.21,-0.1 0.217,-0.1Z" style="fill:rgb(235,235,235);fill-rule:nonzero;"/>
                </g>
                <g transform="matrix(150,0,0,150,161.949,381.053)">
                    <path d="M0.458,-0.394C0.455,-0.395 0.453,-0.396 0.451,-0.397C0.49,-0.421 0.535,-0.468 0.535,-0.557C0.535,-0.601 0.525,-0.64 0.504,-0.67C0.487,-0.694 0.463,-0.714 0.433,-0.728C0.386,-0.75 0.338,-0.751 0.336,-0.751L0.056,-0.751C0.041,-0.751 0.028,-0.738 0.028,-0.722L0.028,-0.029C0.028,-0.013 0.041,-0 0.056,-0L0.335,-0C0.344,-0 0.397,-0.001 0.449,-0.024C0.481,-0.038 0.506,-0.058 0.525,-0.084C0.548,-0.114 0.559,-0.151 0.559,-0.195C0.559,-0.31 0.504,-0.367 0.458,-0.394ZM0.426,-0.077C0.383,-0.058 0.339,-0.058 0.335,-0.058L0.085,-0.058L0.085,-0.367L0.221,-0.367C0.237,-0.367 0.25,-0.381 0.25,-0.396C0.25,-0.412 0.237,-0.425 0.221,-0.425L0.085,-0.425L0.085,-0.693L0.336,-0.693C0.337,-0.693 0.374,-0.693 0.41,-0.676C0.456,-0.652 0.478,-0.614 0.478,-0.557C0.478,-0.504 0.459,-0.467 0.417,-0.445C0.384,-0.426 0.347,-0.425 0.34,-0.425L0.337,-0.425C0.322,-0.424 0.309,-0.411 0.31,-0.396C0.31,-0.38 0.322,-0.368 0.338,-0.367L0.34,-0.367C0.348,-0.367 0.39,-0.366 0.429,-0.344C0.477,-0.316 0.502,-0.266 0.502,-0.195C0.502,-0.138 0.477,-0.1 0.426,-0.077Z" style="fill:rgb(235,235,235);fill-rule:nonzero;"/>
                </g>
                <g transform="matrix(150,0,0,150,252.999,381.053)">
                    <path d="M0.312,-0.406C0.328,-0.406 0.342,-0.418 0.342,-0.434C0.342,-0.45 0.328,-0.464 0.312,-0.464L0.058,-0.464L0.058,-0.695L0.447,-0.695C0.462,-0.695 0.476,-0.707 0.476,-0.723C0.476,-0.739 0.462,-0.751 0.447,-0.751L0.029,-0.751C0.014,-0.751 0,-0.739 0,-0.723L0,-0.434C0,-0.418 0.014,-0.406 0.029,-0.406L0.312,-0.406ZM0.029,-0C0.045,-0 0.058,-0.014 0.058,-0.029L0.058,-0.323C0.058,-0.338 0.045,-0.351 0.029,-0.351C0.014,-0.351 0,-0.338 0,-0.323L0,-0.029C0,-0.014 0.014,-0 0.029,-0Z" style="fill:rgb(235,235,235);fill-rule:nonzero;"/>
                </g>
                <g transform="matrix(150,0,0,150,325.899,381.053)">
                    <path d="M0.528,0.001C0.531,0.001 0.534,-0 0.537,-0C0.549,-0.004 0.557,-0.015 0.557,-0.028L0.557,-0.722C0.557,-0.738 0.544,-0.751 0.528,-0.751C0.513,-0.751 0.5,-0.738 0.5,-0.722L0.5,-0.12L0.35,-0.339C0.342,-0.353 0.323,-0.356 0.311,-0.346C0.298,-0.338 0.295,-0.32 0.303,-0.307L0.505,-0.012C0.51,-0.003 0.519,0.001 0.528,0.001ZM0.054,-0C0.07,-0 0.082,-0.013 0.082,-0.029L0.082,-0.63L0.234,-0.41C0.243,-0.396 0.261,-0.393 0.274,-0.402C0.286,-0.411 0.289,-0.429 0.281,-0.442L0.077,-0.738C0.071,-0.749 0.057,-0.753 0.045,-0.75C0.033,-0.746 0.025,-0.735 0.025,-0.722L0.025,-0.029C0.025,-0.013 0.038,-0 0.054,-0Z" style="fill:rgb(235,235,235);fill-rule:nonzero;"/>
                </g>
            </g>
        </g>
    </g>
</svg>
